<?xml version="1.0" encoding="UTF-8" standalone="no"?>
<!DOCTYPE svg PUBLIC "-//W3C//DTD SVG 1.1//EN"
"http://www.w3.org/Graphics/SVG/1.1/DTD/svg11.dtd">


<!-- Page 1 -->
<svg x="0" y="0" width="730" height="185" viewBox="0 0 730 185" version="1.1" xmlns="http://www.w3.org/2000/svg" xmlns:xlink="http://www.w3.org/1999/xlink"
style="display: block;margin-left: auto;margin-right: auto;">
<defs>

<style type="text/css"><![CDATA[

.g1_1{
fill: none;
stroke: #000000;
stroke-width: 0.4256389;
stroke-linecap: butt;
stroke-linejoin: miter;
}
.g2_1{
fill: none;
stroke: #000000;
stroke-width: 0.85234505;
stroke-linecap: butt;
stroke-linejoin: miter;
}
.g3_1{
fill: none;
stroke: #000000;
stroke-width: 0.42615658;
stroke-linecap: butt;
stroke-linejoin: miter;
}
.g4_1{
}

.s1_1{
font-size: 8.52px;
font-family: CMR8_8;
fill: #000000;
}
.s2_1{
font-size: 15.22px;
font-family: CMR10_9;
fill: #000000;
}

]]></style>

</defs>
<path d="M0,0
L0,185
L730,185
L730,0 Z " 
fill="#FFFFFF" stroke="none" />
<path d="M28.4,24.4l154.2,0" class="g1_1" />
<path d="M28.6,178.1l0,-153.4" class="g1_1" />
<path d="M28.8,178.1l0,-153.4" class="g2_1" />
<path d="M182.2,178.1l0,-153.4" class="g2_1" />
<path d="M28.8,178.1l153.4,0" class="g2_1" />
<path d="M28.8,24.7l153.4,0" class="g2_1" />
<path d="M54.4,178.1l0,-153.4" class="g3_1" />
<path d="M79.9,178.1l0,-153.4" class="g3_1" />
<path d="M105.5,178.1l0,-153.4" class="g3_1" />
<path d="M131.1,178.1l0,-153.4" class="g3_1" />
<path d="M156.7,178.1l0,-153.4" class="g3_1" />
<path d="M28.8,152.5l153.4,0" class="g3_1" />
<path d="M28.8,126.9l153.4,0" class="g3_1" />
<path d="M28.8,101.4l153.4,0" class="g3_1" />
<path d="M28.8,75.8l153.4,0" class="g3_1" />
<path d="M28.8,50.2l153.4,0" class="g3_1" />
<text 
x="18" 
y="167" 
dx="0" 
class="s1_1"
>6</text>

<text 
x="18" 
y="141" 
dx="0" 
class="s1_1"
>5</text>

<text 
x="18" 
y="116" 
dx="0" 
class="s1_1"
>4</text>

<text 
x="18" 
y="90" 
dx="0" 
class="s1_1"
>3</text>

<text 
x="18" 
y="65" 
dx="0" 
class="s1_1"
>2</text>

<text 
x="18" 
y="39" 
dx="0" 
class="s1_1"
>1</text>

<text 
x="38" 
y="19" 
dx="0" 
class="s1_1"
>a</text>

<text 
x="64" 
y="19" 
dx="0" 
class="s1_1"
>b</text>

<text 
x="90" 
y="19" 
dx="0" 
class="s1_1"
>c</text>

<text 
x="115" 
y="19" 
dx="0" 
class="s1_1"
>d</text>

<text 
x="141" 
y="19" 
dx="0" 
class="s1_1"
>e</text>

<text 
x="166" 
y="19" 
dx="0" 
class="s1_1"
>f</text>

<text 
x="18" 
y="167" 
dx="0" 
class="s1_1"
>6</text>

<text 
x="18" 
y="141" 
dx="0" 
class="s1_1"
>5</text>

<text 
x="18" 
y="116" 
dx="0" 
class="s1_1"
>4</text>

<text 
x="18" 
y="90" 
dx="0" 
class="s1_1"
>3</text>

<text 
x="18" 
y="65" 
dx="0" 
class="s1_1"
>2</text>

<text 
x="18" 
y="39" 
dx="0" 
class="s1_1"
>1</text>

<text 
x="38" 
y="19" 
dx="0" 
class="s1_1"
>a</text>

<text 
x="64" 
y="19" 
dx="0" 
class="s1_1"
>b</text>

<text 
x="90" 
y="19" 
dx="0" 
class="s1_1"
>c</text>

<text 
x="115" 
y="19" 
dx="0" 
class="s1_1"
>d</text>

<text 
x="141" 
y="19" 
dx="0" 
class="s1_1"
>e</text>

<text 
x="166" 
y="19" 
dx="0" 
class="s1_1"
>f</text>

<path d="M129.2,63c0,-6,-4.9,-10.9,-10.9,-10.9c-6,0,-10.9,4.9,-10.9,10.9c0,6,4.9,10.9,10.9,10.9c6,0,10.9,-4.9,10.9,-10.9Z" class="g4_1" />
<path d="M77.8,88.6C77.8,82.7,73,77.9,67.2,77.9c-5.9,0,-10.7,4.8,-10.7,10.7c0,5.9,4.8,10.6,10.7,10.6c5.8,0,10.6,-4.7,10.6,-10.6" class="g3_1" />
<path d="M103.4,88.6c0,-5.9,-4.8,-10.7,-10.7,-10.7c-5.9,0,-10.6,4.8,-10.6,10.7c0,5.9,4.7,10.6,10.6,10.6c5.9,0,10.7,-4.7,10.7,-10.6" class="g3_1" />
<path d="M129.2,88.6c0,-6,-4.9,-10.9,-10.9,-10.9c-6,0,-10.9,4.9,-10.9,10.9c0,6,4.9,10.9,10.9,10.9c6,0,10.9,-4.9,10.9,-10.9Z" class="g4_1" />
<path d="M103.4,114.2c0,-5.9,-4.8,-10.7,-10.7,-10.7c-5.9,0,-10.6,4.8,-10.6,10.7c0,5.8,4.7,10.6,10.6,10.6c5.9,0,10.7,-4.8,10.7,-10.6" class="g3_1" />
<path d="M129.2,114.2c0,-6,-4.9,-10.9,-10.9,-10.9c-6,0,-10.9,4.9,-10.9,10.9c0,6,4.9,10.8,10.9,10.8c6,0,10.9,-4.8,10.9,-10.8Z" class="g4_1" />
<path d="M182.4,178.1l0,-153.4" class="g1_1" />
<path d="M28.4,178.3l154.2,0" class="g1_1" />
<path d="M207.1,24.4l154.3,0" class="g1_1" />
<path d="M207.3,178.1l0,-153.4" class="g1_1" />
<path d="M207.5,178.1l0,-153.4" class="g2_1" />
<path d="M361,178.1L361,24.7" class="g2_1" />
<path d="M207.5,178.1l153.5,0" class="g2_1" />
<path d="M207.5,24.7l153.5,0" class="g2_1" />
<path d="M233.1,178.1l0,-153.4" class="g3_1" />
<path d="M258.7,178.1l0,-153.4" class="g3_1" />
<path d="M284.3,178.1l0,-153.4" class="g3_1" />
<path d="M309.8,178.1l0,-153.4" class="g3_1" />
<path d="M335.4,178.1l0,-153.4" class="g3_1" />
<path d="M207.5,152.5l153.5,0" class="g3_1" />
<path d="M207.5,126.9l153.5,0" class="g3_1" />
<path d="M207.5,101.4l153.5,0" class="g3_1" />
<path d="M207.5,75.8l153.5,0" class="g3_1" />
<path d="M207.5,50.2l153.5,0" class="g3_1" />
<text 
x="196" 
y="167" 
dx="0" 
class="s1_1"
>6</text>

<text 
x="196" 
y="141" 
dx="0" 
class="s1_1"
>5</text>

<text 
x="196" 
y="116" 
dx="0" 
class="s1_1"
>4</text>

<text 
x="196" 
y="90" 
dx="0" 
class="s1_1"
>3</text>

<text 
x="196" 
y="65" 
dx="0" 
class="s1_1"
>2</text>

<text 
x="196" 
y="39" 
dx="0" 
class="s1_1"
>1</text>

<text 
x="217" 
y="19" 
dx="0" 
class="s1_1"
>a</text>

<text 
x="243" 
y="19" 
dx="0" 
class="s1_1"
>b</text>

<text 
x="268" 
y="19" 
dx="0" 
class="s1_1"
>c</text>

<text 
x="294" 
y="19" 
dx="0" 
class="s1_1"
>d</text>

<text 
x="319" 
y="19" 
dx="0" 
class="s1_1"
>e</text>

<text 
x="345" 
y="19" 
dx="0" 
class="s1_1"
>f</text>

<text 
x="196" 
y="167" 
dx="0" 
class="s1_1"
>6</text>

<text 
x="196" 
y="141" 
dx="0" 
class="s1_1"
>5</text>

<text 
x="196" 
y="116" 
dx="0" 
class="s1_1"
>4</text>

<text 
x="196" 
y="90" 
dx="0" 
class="s1_1"
>3</text>

<text 
x="196" 
y="65" 
dx="0" 
class="s1_1"
>2</text>

<text 
x="196" 
y="39" 
dx="0" 
class="s1_1"
>1</text>

<text 
x="217" 
y="19" 
dx="0" 
class="s1_1"
>a</text>

<text 
x="243" 
y="19" 
dx="0" 
class="s1_1"
>b</text>

<text 
x="268" 
y="19" 
dx="0" 
class="s1_1"
>c</text>

<text 
x="294" 
y="19" 
dx="0" 
class="s1_1"
>d</text>

<text 
x="319" 
y="19" 
dx="0" 
class="s1_1"
>e</text>

<text 
x="345" 
y="19" 
dx="0" 
class="s1_1"
>f</text>

<path d="M307.9,63C307.9,57,303,52.1,297,52.1c-6,0,-10.8,4.9,-10.8,10.9c0,6,4.8,10.9,10.8,10.9c6,0,10.9,-4.9,10.9,-10.9Z" class="g4_1" />
<path d="M256.6,88.6c0,-5.9,-4.8,-10.7,-10.7,-10.7c-5.9,0,-10.7,4.8,-10.7,10.7c0,5.9,4.8,10.6,10.7,10.6c5.9,0,10.7,-4.7,10.7,-10.6" class="g3_1" />
<path d="M282.3,88.6c0,-6,-4.8,-10.9,-10.8,-10.9c-6,0,-10.9,4.9,-10.9,10.9c0,6,4.9,10.9,10.9,10.9c6,0,10.8,-4.9,10.8,-10.9Z" class="g4_1" />
<path d="M307.7,88.6c0,-5.9,-4.8,-10.7,-10.7,-10.7c-5.8,0,-10.6,4.8,-10.6,10.7c0,5.9,4.8,10.6,10.6,10.6c5.9,0,10.7,-4.7,10.7,-10.6" class="g3_1" />
<path d="M333.3,88.6c0,-5.9,-4.8,-10.7,-10.7,-10.7c-5.9,0,-10.6,4.8,-10.6,10.7c0,5.9,4.7,10.6,10.6,10.6c5.9,0,10.7,-4.7,10.7,-10.6" class="g3_1" />
<path d="M256.8,114.2c0,-6,-4.9,-10.9,-10.9,-10.9c-6,0,-10.9,4.9,-10.9,10.9c0,6,4.9,10.8,10.9,10.8c6,0,10.9,-4.8,10.9,-10.8Z" class="g4_1" />
<path d="M282.3,114.2c0,-6,-4.8,-10.9,-10.8,-10.9c-6,0,-10.9,4.9,-10.9,10.9c0,6,4.9,10.8,10.9,10.8c6,0,10.8,-4.8,10.8,-10.8Z" class="g4_1" />
<path d="M307.9,114.2c0,-6,-4.9,-10.9,-10.9,-10.9c-6,0,-10.8,4.9,-10.8,10.9c0,6,4.8,10.8,10.8,10.8c6,0,10.9,-4.8,10.9,-10.8Z" class="g4_1" />
<path d="M361.2,178.1l0,-153.4" class="g1_1" />
<path d="M207.1,178.3l154.3,0" class="g1_1" />
<path d="M385.9,24.4l154.2,0" class="g1_1" />
<path d="M386.1,178.1l0,-153.4" class="g1_1" />
<path d="M386.3,178.1l0,-153.4" class="g2_1" />
<path d="M539.7,178.1l0,-153.4" class="g2_1" />
<path d="M386.3,178.1l153.4,0" class="g2_1" />
<path d="M386.3,24.7l153.4,0" class="g2_1" />
<path d="M411.9,178.1l0,-153.4" class="g3_1" />
<path d="M437.4,178.1l0,-153.4" class="g3_1" />
<path d="M463,178.1L463,24.7" class="g3_1" />
<path d="M488.6,178.1l0,-153.4" class="g3_1" />
<path d="M514.2,178.1l0,-153.4" class="g3_1" />
<path d="M386.3,152.5l153.4,0" class="g3_1" />
<path d="M386.3,126.9l153.4,0" class="g3_1" />
<path d="M386.3,101.4l153.4,0" class="g3_1" />
<path d="M386.3,75.8l153.4,0" class="g3_1" />
<path d="M386.3,50.2l153.4,0" class="g3_1" />
<text 
x="375" 
y="167" 
dx="0" 
class="s1_1"
>6</text>

<text 
x="375" 
y="141" 
dx="0" 
class="s1_1"
>5</text>

<text 
x="375" 
y="116" 
dx="0" 
class="s1_1"
>4</text>

<text 
x="375" 
y="90" 
dx="0" 
class="s1_1"
>3</text>

<text 
x="375" 
y="65" 
dx="0" 
class="s1_1"
>2</text>

<text 
x="375" 
y="39" 
dx="0" 
class="s1_1"
>1</text>

<text 
x="396" 
y="19" 
dx="0" 
class="s1_1"
>a</text>

<text 
x="421" 
y="19" 
dx="0" 
class="s1_1"
>b</text>

<text 
x="447" 
y="19" 
dx="0" 
class="s1_1"
>c</text>

<text 
x="473" 
y="19" 
dx="0" 
class="s1_1"
>d</text>

<text 
x="498" 
y="19" 
dx="0" 
class="s1_1"
>e</text>

<text 
x="524" 
y="19" 
dx="0" 
class="s1_1"
>f</text>

<text 
x="375" 
y="167" 
dx="0" 
class="s1_1"
>6</text>

<text 
x="375" 
y="141" 
dx="0" 
class="s1_1"
>5</text>

<text 
x="375" 
y="116" 
dx="0" 
class="s1_1"
>4</text>

<text 
x="375" 
y="90" 
dx="0" 
class="s1_1"
>3</text>

<text 
x="375" 
y="65" 
dx="0" 
class="s1_1"
>2</text>

<text 
x="375" 
y="39" 
dx="0" 
class="s1_1"
>1</text>

<text 
x="396" 
y="19" 
dx="0" 
class="s1_1"
>a</text>

<text 
x="421" 
y="19" 
dx="0" 
class="s1_1"
>b</text>

<text 
x="447" 
y="19" 
dx="0" 
class="s1_1"
>c</text>

<text 
x="473" 
y="19" 
dx="0" 
class="s1_1"
>d</text>

<text 
x="498" 
y="19" 
dx="0" 
class="s1_1"
>e</text>

<text 
x="524" 
y="19" 
dx="0" 
class="s1_1"
>f</text>

<path d="M486.7,63c0,-6,-4.9,-10.9,-10.9,-10.9c-6,0,-10.9,4.9,-10.9,10.9c0,6,4.9,10.9,10.9,10.9c6,0,10.9,-4.9,10.9,-10.9Z" class="g4_1" />
<path d="M435.3,88.6c0,-5.9,-4.8,-10.7,-10.6,-10.7c-5.9,0,-10.7,4.8,-10.7,10.7c0,5.9,4.8,10.6,10.7,10.6c5.8,0,10.6,-4.7,10.6,-10.6" class="g3_1" />
<path d="M461.1,88.6c0,-6,-4.9,-10.9,-10.9,-10.9c-6,0,-10.8,4.9,-10.8,10.9c0,6,4.8,10.9,10.8,10.9c6,0,10.9,-4.9,10.9,-10.9Z" class="g4_1" />
<path d="M486.7,88.6c0,-6,-4.9,-10.9,-10.9,-10.9c-6,0,-10.9,4.9,-10.9,10.9c0,6,4.9,10.9,10.9,10.9c6,0,10.9,-4.9,10.9,-10.9Z" class="g4_1" />
<path d="M512.2,88.6c0,-6,-4.8,-10.9,-10.8,-10.9c-6,0,-10.9,4.9,-10.9,10.9c0,6,4.9,10.9,10.9,10.9c6,0,10.8,-4.9,10.8,-10.9Z" class="g4_1" />
<path d="M537.8,88.6c0,-6,-4.9,-10.9,-10.9,-10.9c-6,0,-10.8,4.9,-10.8,10.9c0,6,4.8,10.9,10.8,10.9c6,0,10.9,-4.9,10.9,-10.9Z" class="g4_1" />
<path d="M435.3,114.2c0,-5.9,-4.8,-10.7,-10.6,-10.7c-5.9,0,-10.7,4.8,-10.7,10.7c0,5.8,4.8,10.6,10.7,10.6c5.8,0,10.6,-4.8,10.6,-10.6" class="g3_1" />
<path d="M460.9,114.2c0,-5.9,-4.8,-10.7,-10.7,-10.7c-5.9,0,-10.6,4.8,-10.6,10.7c0,5.8,4.7,10.6,10.6,10.6c5.9,0,10.7,-4.8,10.7,-10.6" class="g3_1" />
<path d="M486.7,114.2c0,-6,-4.9,-10.9,-10.9,-10.9c-6,0,-10.9,4.9,-10.9,10.9c0,6,4.9,10.8,10.9,10.8c6,0,10.9,-4.8,10.9,-10.8Z" class="g4_1" />
<path d="M435.3,139.7c0,-5.9,-4.8,-10.6,-10.6,-10.6c-5.9,0,-10.7,4.7,-10.7,10.6c0,5.9,4.8,10.7,10.7,10.7c5.8,0,10.6,-4.8,10.6,-10.7" class="g3_1" />
<path d="M539.9,178.1l0,-153.4" class="g1_1" />
<path d="M385.9,178.3l154.2,0" class="g1_1" />
<path d="M564.6,24.4l154.3,0" class="g1_1" />
<path d="M564.8,178.1l0,-153.4" class="g1_1" />
<path d="M565,178.1L565,24.7" class="g2_1" />
<path d="M718.5,178.1l0,-153.4" class="g2_1" />
<path d="M565,178.1l153.5,0" class="g2_1" />
<path d="M565,24.7l153.5,0" class="g2_1" />
<path d="M590.6,178.1l0,-153.4" class="g3_1" />
<path d="M616.2,178.1l0,-153.4" class="g3_1" />
<path d="M641.8,178.1l0,-153.4" class="g3_1" />
<path d="M667.3,178.1l0,-153.4" class="g3_1" />
<path d="M692.9,178.1l0,-153.4" class="g3_1" />
<path d="M565,152.5l153.5,0" class="g3_1" />
<path d="M565,126.9l153.5,0" class="g3_1" />
<path d="M565,101.4l153.5,0" class="g3_1" />
<path d="M565,75.8l153.5,0" class="g3_1" />
<path d="M565,50.2l153.5,0" class="g3_1" />
<text 
x="554" 
y="167" 
dx="0" 
class="s1_1"
>6</text>

<text 
x="554" 
y="141" 
dx="0" 
class="s1_1"
>5</text>

<text 
x="554" 
y="116" 
dx="0" 
class="s1_1"
>4</text>

<text 
x="554" 
y="90" 
dx="0" 
class="s1_1"
>3</text>

<text 
x="554" 
y="65" 
dx="0" 
class="s1_1"
>2</text>

<text 
x="554" 
y="39" 
dx="0" 
class="s1_1"
>1</text>

<text 
x="575" 
y="19" 
dx="0" 
class="s1_1"
>a</text>

<text 
x="600" 
y="19" 
dx="0" 
class="s1_1"
>b</text>

<text 
x="626" 
y="19" 
dx="0" 
class="s1_1"
>c</text>

<text 
x="651" 
y="19" 
dx="0" 
class="s1_1"
>d</text>

<text 
x="677" 
y="19" 
dx="0" 
class="s1_1"
>e</text>

<text 
x="703" 
y="19" 
dx="0" 
class="s1_1"
>f</text>

<text 
x="554" 
y="167" 
dx="0" 
class="s1_1"
>6</text>

<text 
x="554" 
y="141" 
dx="0" 
class="s1_1"
>5</text>

<text 
x="554" 
y="116" 
dx="0" 
class="s1_1"
>4</text>

<text 
x="554" 
y="90" 
dx="0" 
class="s1_1"
>3</text>

<text 
x="554" 
y="65" 
dx="0" 
class="s1_1"
>2</text>

<text 
x="554" 
y="39" 
dx="0" 
class="s1_1"
>1</text>

<text 
x="575" 
y="19" 
dx="0" 
class="s1_1"
>a</text>

<text 
x="600" 
y="19" 
dx="0" 
class="s1_1"
>b</text>

<text 
x="626" 
y="19" 
dx="0" 
class="s1_1"
>c</text>

<text 
x="651" 
y="19" 
dx="0" 
class="s1_1"
>d</text>

<text 
x="677" 
y="19" 
dx="0" 
class="s1_1"
>e</text>

<text 
x="703" 
y="19" 
dx="0" 
class="s1_1"
>f</text>

<path d="M639.6,63c0,-5.9,-4.7,-10.6,-10.6,-10.6c-5.9,0,-10.7,4.7,-10.7,10.6c0,5.9,4.8,10.7,10.7,10.7c5.9,0,10.6,-4.8,10.6,-10.7" class="g3_1" />
<path d="M665.4,63c0,-6,-4.9,-10.9,-10.9,-10.9c-6,0,-10.8,4.9,-10.8,10.9c0,6,4.8,10.9,10.8,10.9c6,0,10.9,-4.9,10.9,-10.9Z" class="g4_1" />
<path d="M614.1,88.6c0,-5.9,-4.8,-10.7,-10.7,-10.7c-5.9,0,-10.7,4.8,-10.7,10.7c0,5.9,4.8,10.6,10.7,10.6c5.9,0,10.7,-4.7,10.7,-10.6" class="g3_1" />
<path d="M639.6,88.6c0,-5.9,-4.7,-10.7,-10.6,-10.7c-5.9,0,-10.7,4.8,-10.7,10.7c0,5.9,4.8,10.6,10.7,10.6c5.9,0,10.6,-4.7,10.6,-10.6" class="g3_1" />
<path d="M665.4,88.6c0,-6,-4.9,-10.9,-10.9,-10.9c-6,0,-10.8,4.9,-10.8,10.9c0,6,4.8,10.9,10.8,10.9c6,0,10.9,-4.9,10.9,-10.9Z" class="g4_1" />
<path d="M691,88.6c0,-6,-4.9,-10.9,-10.9,-10.9c-6,0,-10.9,4.9,-10.9,10.9c0,6,4.9,10.9,10.9,10.9c6,0,10.9,-4.9,10.9,-10.9Z" class="g4_1" />
<path d="M716.6,88.6c0,-6,-4.9,-10.9,-10.9,-10.9c-6,0,-10.9,4.9,-10.9,10.9c0,6,4.9,10.9,10.9,10.9c6,0,10.9,-4.9,10.9,-10.9Z" class="g4_1" />
<path d="M614.1,114.2c0,-5.9,-4.8,-10.7,-10.7,-10.7c-5.9,0,-10.7,4.8,-10.7,10.7c0,5.8,4.8,10.6,10.7,10.6c5.9,0,10.7,-4.8,10.7,-10.6" class="g3_1" />
<path d="M639.8,114.2c0,-6,-4.8,-10.9,-10.8,-10.9c-6,0,-10.9,4.9,-10.9,10.9c0,6,4.9,10.8,10.9,10.8c6,0,10.8,-4.8,10.8,-10.8Z" class="g4_1" />
<path d="M665.4,114.2c0,-6,-4.9,-10.9,-10.9,-10.9c-6,0,-10.8,4.9,-10.8,10.9c0,6,4.8,10.8,10.8,10.8c6,0,10.9,-4.8,10.9,-10.8Z" class="g4_1" />
<path d="M614.3,139.7c0,-6,-4.9,-10.8,-10.9,-10.8c-6,0,-10.9,4.8,-10.9,10.8c0,6,4.9,10.9,10.9,10.9c6,0,10.9,-4.9,10.9,-10.9Z" class="g4_1" />
<path d="M588.7,165.3c0,-6,-4.9,-10.9,-10.9,-10.9c-6,0,-10.8,4.9,-10.8,10.9c0,6,4.8,10.9,10.8,10.9c6,0,10.9,-4.9,10.9,-10.9Z" class="g4_1" />
<path d="M718.7,178.1l0,-153.4" class="g1_1" />
<path d="M564.6,178.3l154.3,0" class="g1_1" />
<text 
x="353" 
y="195" 
dx="0" 
class="s2_1"
>1</text>



<!-- Any embedded fonts defined here -->
<style type="text/css" ><![CDATA[

@font-face {
	font-family: CMR10_9;
	src: url("fonts/CMR10_9.woff") format("woff");
}

@font-face {
	font-family: CMR8_8;
	src: url("fonts/CMR8_8.woff") format("woff");
}

]]></style>

</svg>
